<svg viewBox="0 0 500 500" xmlns="http://www.w3.org/2000/svg" xmlns:bx="https://boxy-svg.com">
  <defs>
    <radialGradient gradientUnits="userSpaceOnUse" cx="149.567" cy="149.801" r="250" id="gradient-0">
      <stop offset="0" style="stop-color: rgb(245, 167, 86);"></stop>
      <stop offset="1" style="stop-color: rgb(245, 114, 0);"></stop>
    </radialGradient>
  </defs>
  <circle style="fill: url(#gradient-0);" cx="250" cy="250" r="250"></circle>
  <path d="M 450 250 C 450 250 350 350 250 350 C 150 350 50 250 50 250 C 50 250 150 150 250 150 C 350 150 450 250 450 250 Z" style="stroke: rgb(255, 255, 255); stroke-linejoin: round; stroke-width: 40px; fill: rgb(255, 255, 255);" bx:origin="0.5 0.399598"></path>
  <path d="M 499.5 250 C 499.5 281.815 492.472 314.699 479.842 345.204 C 467.203 375.707 448.917 403.924 426.424 426.424 C 377.716 475.1 313.814 499.5 250 499.5 C 186.186 499.5 122.269 475.116 73.576 426.424 C 24.884 377.731 0.5 313.814 0.5 250 C 0.5 186.186 24.884 122.269 73.576 73.576 C 122.269 24.884 186.186 0.5 250 0.5 C 313.814 0.5 377.731 24.884 426.424 73.576 C 448.92 96.073 467.203 124.294 479.842 154.796 C 492.472 185.301 499.5 218.185 499.5 250 Z M 478.918 155.178 C 466.321 124.758 448.14 96.707 425.716 74.284 C 377.169 25.736 313.636 1.5 250 1.5 C 186.364 1.5 122.831 25.736 74.284 74.284 C 25.736 122.831 1.5 186.364 1.5 250 C 1.5 313.636 25.736 377.169 74.284 425.716 C 122.831 474.264 186.364 498.5 250 498.5 C 313.636 498.5 377.184 474.28 425.716 425.716 C 448.143 403.298 466.321 375.243 478.918 344.822 C 491.522 314.403 498.5 281.711 498.5 250 C 498.5 218.289 491.522 185.597 478.918 155.178 Z" style="fill: none;"></path>
  <path d="M 499.5 250 C 499.5 281.815 492.472 314.699 479.842 345.204 C 467.203 375.707 448.917 403.924 426.424 426.424 C 377.716 475.1 313.814 499.5 250 499.5 C 186.186 499.5 122.269 475.116 73.576 426.424 C 24.884 377.731 0.5 313.814 0.5 250 C 0.5 186.186 24.884 122.269 73.576 73.576 C 122.269 24.884 186.186 0.5 250 0.5 C 313.814 0.5 377.731 24.884 426.424 73.576 C 448.92 96.073 467.203 124.294 479.842 154.796 C 492.472 185.301 499.5 218.185 499.5 250 Z M 478.918 155.178 C 466.321 124.758 448.14 96.707 425.716 74.284 C 377.169 25.736 313.636 1.5 250 1.5 C 186.364 1.5 122.831 25.736 74.284 74.284 C 25.736 122.831 1.5 186.364 1.5 250 C 1.5 313.636 25.736 377.169 74.284 425.716 C 122.831 474.264 186.364 498.5 250 498.5 C 313.636 498.5 377.184 474.28 425.716 425.716 C 448.143 403.298 466.321 375.243 478.918 344.822 C 491.522 314.403 498.5 281.711 498.5 250 C 498.5 218.289 491.522 185.597 478.918 155.178 Z" style="fill: none;"></path>
  <path d="M 500.5 250 C 500.5 319.138 472.434 381.826 427.13 427.13 C 381.826 472.434 319.138 500.5 250 500.5 C 180.862 500.5 118.174 472.434 72.87 427.13 C 27.566 381.826 -0.5 319.138 -0.5 250 C -0.5 180.862 27.566 118.174 72.87 72.87 C 118.174 27.566 180.862 -0.5 250 -0.5 C 319.138 -0.5 381.826 27.566 427.13 72.87 C 472.434 118.174 500.5 180.862 500.5 250 Z M 426.423 73.577 C 381.245 28.399 318.933 0.5 250 0.5 C 181.067 0.5 118.755 28.399 73.577 73.577 C 28.399 118.755 0.5 181.067 0.5 250 C 0.5 318.933 28.399 381.245 73.577 426.423 C 118.755 471.601 181.067 499.5 250 499.5 C 318.933 499.5 381.245 471.601 426.423 426.423 C 471.601 381.245 499.5 318.933 499.5 250 C 499.5 181.067 471.601 118.755 426.423 73.577 Z" style="fill: none;"></path>
  <circle style="stroke-width: 40px; fill: rgb(245, 114, 0);" cx="250" cy="250" r="110"></circle>
  <circle style="fill: rgb(255, 255, 255); stroke-width: 30px;" cx="250" cy="250" r="70"></circle>
  <line style="fill: none; stroke: rgb(255, 255, 255); stroke-linecap: round; stroke-width: 50px;" x1="400" y1="125" x2="100" y2="375"></line>
  <line style="stroke-width: 20px; stroke: rgb(245, 114, 0);" x1="455" y1="125" x2="100" y2="421"></line>
</svg>